<?xml version="1.0" standalone="no"?>
<!DOCTYPE svg PUBLIC "-//W3C//DTD SVG 20010904//EN"
 "http://www.w3.org/TR/2001/REC-SVG-20010904/DTD/svg10.dtd">
<svg version="1.0" xmlns="http://www.w3.org/2000/svg"
 width="1024.000000pt" height="1024.000000pt" viewBox="0 0 1024.000000 1024.000000"
 preserveAspectRatio="xMidYMid meet">

<g transform="translate(0.000000,1024.000000) scale(0.100000,-0.100000)"
fill="#000000" stroke="none">
<path d="M2970 8400 c-430 -60 -782 -278 -1021 -633 -110 -163 -181 -338 -221
-542 -27 -139 -30 -374 -5 -510 110 -606 547 -1057 1150 -1187 137 -29 417
-32 552 -5 307 62 549 191 765 407 213 212 339 442 402 733 30 137 32 445 5
580 -92 456 -389 831 -813 1028 -97 45 -247 92 -364 114 -101 19 -358 28 -450
15z m380 -235 c868 -141 1314 -1102 860 -1850 -172 -282 -450 -480 -785 -558
-111 -25 -369 -30 -480 -8 -435 86 -792 390 -939 799 -70 195 -88 448 -47 649
135 655 737 1074 1391 968z"/>
<path d="M3100 7885 c-36 -19 -49 -50 -52 -120 l-3 -60 -45 -7 c-120 -20 -244
-121 -302 -243 -74 -159 -33 -377 88 -470 39 -30 132 -73 212 -99 l52 -18 0
-219 c0 -120 -2 -219 -5 -219 -3 0 -21 6 -39 14 -50 21 -114 83 -141 137 -32
62 -67 89 -117 89 -30 0 -46 -7 -69 -29 -106 -106 80 -371 301 -428 l70 -17 0
-62 c0 -47 5 -68 20 -87 41 -52 132 -53 179 -3 18 19 24 40 28 89 l6 65 35 7
c70 13 162 63 222 121 105 100 153 237 131 374 -27 165 -135 274 -333 336
l-58 18 0 213 0 213 38 -19 c42 -21 97 -79 124 -130 24 -44 78 -66 125 -50
109 36 87 199 -44 319 -54 49 -127 84 -203 96 l-40 7 0 49 c0 59 -20 110 -51
132 -28 19 -95 20 -129 1z m-50 -585 c0 -99 -3 -180 -7 -180 -5 0 -32 13 -62
28 -70 35 -94 77 -88 147 7 66 40 121 96 156 25 16 49 29 53 29 4 0 8 -81 8
-180z m300 -520 c99 -51 123 -144 63 -248 -24 -42 -101 -102 -131 -102 -11 0
-13 35 -11 190 3 214 -4 202 79 160z"/>
<path d="M6785 7370 c-402 -46 -718 -184 -971 -423 -192 -182 -312 -368 -394
-616 -58 -174 -74 -276 -71 -466 6 -356 6 -356 -18 -424 -12 -35 -76 -175
-141 -310 -125 -260 -140 -299 -140 -372 0 -123 71 -206 219 -256 l66 -22 7
-88 c4 -56 16 -116 34 -163 24 -67 27 -92 30 -228 3 -158 12 -209 46 -277 68
-133 187 -206 367 -224 96 -10 163 -4 359 31 116 20 124 21 158 5 55 -27 81
-94 109 -291 13 -90 28 -174 35 -186 16 -29 75 -53 115 -46 35 7 79 49 88 84
3 12 -1 75 -10 140 -37 298 -106 443 -241 509 -73 36 -136 36 -328 -1 -217
-40 -326 -33 -396 25 -60 49 -71 86 -79 254 -6 130 -10 160 -35 225 -25 67
-28 90 -30 214 -3 186 -7 192 -176 241 -97 28 -122 46 -112 79 3 11 64 143
135 291 157 331 173 381 168 555 -6 271 -2 394 16 480 101 488 455 855 947
985 307 80 648 74 930 -19 498 -163 818 -520 929 -1036 20 -90 23 -134 23
-315 0 -235 -14 -326 -79 -523 -49 -147 -88 -225 -226 -459 -202 -343 -228
-420 -236 -705 -8 -261 17 -459 97 -787 47 -191 59 -210 132 -218 52 -5 103
22 119 65 13 30 12 33 -50 297 -61 262 -75 372 -75 590 0 177 2 196 27 278 34
109 50 141 184 364 117 195 184 330 233 468 165 469 142 990 -62 1400 -115
230 -313 456 -529 603 -166 113 -426 214 -649 251 -143 25 -402 35 -525 21z"/>
<path d="M6638 6461 c-73 -15 -72 -14 -218 -421 -62 -173 -157 -438 -211 -588
-55 -150 -99 -285 -99 -301 0 -16 10 -37 23 -49 20 -19 35 -22 108 -22 109 0
114 5 172 170 l44 125 260 3 260 2 47 -132 c27 -73 55 -141 64 -150 12 -15 32
-18 113 -18 94 0 98 1 119 27 15 19 19 35 15 53 -6 23 -76 215 -371 1012 -53
141 -104 264 -115 274 -22 20 -147 29 -211 15z m248 -823 c5 -17 -7 -18 -165
-18 -94 0 -171 2 -171 5 0 5 153 451 166 485 5 11 100 -254 170 -472z"/>
<path d="M7580 6453 c-8 -3 -25 -15 -37 -26 l-23 -20 0 -627 c0 -562 2 -628
16 -649 38 -53 155 -69 215 -28 l34 23 3 646 2 646 -26 21 c-22 17 -40 21 -98
20 -39 0 -78 -3 -86 -6z"/>
<path d="M4423 5771 c-17 -11 -37 -29 -42 -40 -8 -14 -11 -372 -11 -1156 0
-1260 -4 -1182 65 -1211 27 -11 93 -14 297 -14 246 0 265 1 296 20 62 38 62
36 62 608 l0 518 -36 35 c-20 18 -48 57 -62 84 -24 44 -27 61 -27 145 1 87 4
103 38 184 21 49 49 111 63 138 l25 50 -3 294 -3 294 -33 32 -32 33 -283 3
c-266 2 -284 1 -314 -17z m437 -1196 l0 -995 -130 0 -130 0 0 995 0 995 130 0
130 0 0 -995z"/>
<path d="M3490 5163 c-73 -38 -70 7 -70 -896 0 -890 -2 -857 62 -897 31 -19
46 -20 311 -18 l279 3 34 37 34 38 0 835 0 835 -34 38 -34 37 -274 3 c-245 2
-277 1 -308 -15z m420 -898 l0 -685 -130 0 -130 0 0 685 0 685 130 0 130 0 0
-685z"/>
<path d="M2554 4670 c-12 -4 -31 -21 -43 -36 -21 -27 -21 -29 -21 -611 0 -648
-2 -631 65 -659 50 -20 530 -20 580 0 67 28 65 11 65 656 0 523 -2 583 -16
606 -34 51 -51 54 -341 53 -147 0 -278 -4 -289 -9z m416 -655 l0 -435 -125 0
-125 0 0 435 0 435 125 0 125 0 0 -435z"/>
<path d="M5017 2999 c-24 -14 -47 -62 -47 -98 0 -40 43 -88 88 -100 37 -10
220 -29 317 -34 l50 -2 -120 -72 c-427 -256 -811 -373 -1219 -373 -425 0 -860
150 -1172 404 -30 25 -67 47 -83 51 -63 14 -131 -43 -131 -110 0 -44 27 -76
115 -142 298 -222 603 -351 970 -409 134 -22 465 -25 600 -6 407 58 805 216
1075 425 36 27 71 55 79 61 12 9 13 7 7 -9 -29 -69 -106 -347 -106 -378 0 -58
43 -97 105 -97 40 0 52 5 79 33 28 28 45 74 139 377 59 190 107 353 107 363 0
32 -28 74 -57 85 -15 7 -165 19 -333 27 -355 17 -438 18 -463 4z"/>
</g>
</svg>
